<?xml version="1.0" encoding="utf-8"?>
<?xml-stylesheet type="text/xsl" href="rss1.xsl"?>
<rss version="2.0" xmlns:atom="http://www.w3.org/2005/Atom" xmlns:content="http://purl.org/rss/1.0/modules/content/" xmlns:dc="http://purl.org/dc/elements/1.1/" xmlns:media="http://search.yahoo.com/mrss/">
<channel>
 <title>Getty</title>
 <link>http://www.gettyimg.com/</link>
 <atom:link href="http://www.gettyimg.com/" rel="self" type="application/rss+xml" />

 
                <item>
                <title><![CDATA[【Apple Music】WEB-RiP - ZAYN - Dusk Till Dawn (feat. Sia) (1080p)]]></title>
                <link><![CDATA[https://sharemania.us/threads/zayn-dusk-till-dawn-feat-sia-1080p.238201/]]></link>
                <description><![CDATA[<article>
<blockquote class="messageText SelectQuoteContainer ugc baseHtml">
<img src="https://i.postimg.cc/FskSWT77/ZAYN-Dusk-Till-Dawn-feat-Sia-mp4.jpg" class="bbCodeImage LbImage" alt="[​IMG]" data-url="https://i.postimg.cc/FskSWT77/ZAYN-Dusk-Till-Dawn-feat-Sia-mp4.jpg" style=""><br>
<br>
<div class="bbCodeBlock bbCodeCode">
<div class="type">Code:</div>
<pre>General
Complete name                  : G:\Новая папка\ZAYN - Dusk Till Dawn (feat. Sia).mp4
Format                         : MPEG-4
Format profile                 : Base Media
Codec ID                       : isom (isom/iso2/avc1/mp41)
File size                      : 280 MiB
Duration                       : 5 min 37 s
Overall bit rate               : 6 969 kb/s
Frame rate                     : 23.976 FPS
Movie name                     : Dusk Till Dawn (feat. Sia)
Performer                      : ZAYN
Genre                          : Pop
ContentType                    : Music Video
Recorded date                  : 2017-09-07 07:00:00 UTC
Writing application            : Lavf56.30.100
Copyright                      : ℗ (C) 2017 RCA Records, a division of Sony Music Entertainment

Video
ID                             : 1
Format                         : AVC
Format/Info                    : Advanced Video Codec
Format profile                 : High@L4
Format settings                : CABAC / 5 Ref Frames
Format settings, CABAC         : Yes
Format settings, Reference fra : 5 frames
Codec ID                       : avc1
Codec ID/Info                  : Advanced Video Coding
Duration                       : 5 min 36 s
Bit rate                       : 6 712 kb/s
Width                          : 1 916 pixels
Height                         : 788 pixels
Display aspect ratio           : 2.40:1
Frame rate mode                : Constant
Frame rate                     : 23.976 (24000/1001) FPS
Color space                    : YUV
Chroma subsampling             : 4:2:0
Bit depth                      : 8 bits
Scan type                      : Progressive
Bits/(Pixel*Frame)             : 0.185
Stream size                    : 270 MiB (96%)
Language                       : English
Color range                    : Limited
Color primaries                : BT.709
Transfer characteristics       : BT.709
Matrix coefficients            : BT.709
Codec configuration box        : avcC

Audio
ID                             : 2
Format                         : AAC LC
Format/Info                    : Advanced Audio Codec Low Complexity
Codec ID                       : mp4a-40-2
Duration                       : 5 min 37 s
Bit rate mode                  : Constant
Bit rate                       : 254 kb/s
Channel(s)                     : 2 channels
Channel layout                 : L R
Sampling rate                  : 48.0 kHz
Frame rate                     : 46.875 FPS (1024 SPF)
Compression mode               : Lossy
Stream size                    : 10.2 MiB (4%)
Default                        : Yes
Alternate group                : 1

</pre>
</div>
<div class="bbCodeBlock bbCodeVfcHH HiddenContent">
<div class="attribution type">Hidden Content:</div>
<blockquote>You must either reply or click 'Like' to see the hidden information contained here.</blockquote>
</div>
<div class="messageTextEndMarker">&nbsp;</div>
</blockquote>
</article>]]></description>
                <author><![CDATA[vitalya3]]></author>
                </item>

                
                <item>
                <title><![CDATA[【Apple Music】WEB-RiP - Sia - Elastic Heart feat. Shia LaBeouf &amp; Maddie Ziegler (1080p)]]></title>
                <link><![CDATA[https://sharemania.us/threads/sia-elastic-heart-feat-shia-labeouf-maddie-ziegler-1080p.238200/]]></link>
                <description><![CDATA[<article>
<blockquote class="messageText SelectQuoteContainer ugc baseHtml">
<img src="https://i.postimg.cc/7LYkKQmz/Sia-Elastic-Heart-feat-Shia-La-Beouf-Maddie-Ziegler-mp4.jpg" class="bbCodeImage LbImage" alt="[​IMG]" data-url="https://i.postimg.cc/7LYkKQmz/Sia-Elastic-Heart-feat-Shia-La-Beouf-Maddie-Ziegler-mp4.jpg" style=""><br>
<br>
<div class="bbCodeBlock bbCodeCode">
<div class="type">Code:</div>
<pre>General
Complete name                  : G:\Новая папка\Sia - Elastic Heart feat. Shia LaBeouf &amp; Maddie Ziegler.mp4
Format                         : MPEG-4
Format profile                 : Base Media
Codec ID                       : isom (isom/iso2/avc1/mp41)
File size                      : 248 MiB
Duration                       : 5 min 7 s
Overall bit rate               : 6 785 kb/s
Frame rate                     : 23.976 FPS
Movie name                     : Elastic Heart
Performer                      : Sia
Genre                          : Pop
ContentType                    : Music Video
Recorded date                  : 2015-01-07 08:00:00 UTC
Writing application            : Lavf56.30.100
Copyright                      : ℗ (C) 2014 RCA Records, a division of Sony Music Entertainment

Video
ID                             : 1
Format                         : AVC
Format/Info                    : Advanced Video Codec
Format profile                 : High@L4
Format settings                : CABAC / 5 Ref Frames
Format settings, CABAC         : Yes
Format settings, Reference fra : 5 frames
Codec ID                       : avc1
Codec ID/Info                  : Advanced Video Coding
Duration                       : 5 min 7 s
Bit rate                       : 6 525 kb/s
Width                          : 1 920 pixels
Height                         : 812 pixels
Display aspect ratio           : 2.35:1
Frame rate mode                : Constant
Frame rate                     : 23.976 (23976/1000) FPS
Color space                    : YUV
Chroma subsampling             : 4:2:0
Bit depth                      : 8 bits
Scan type                      : Progressive
Bits/(Pixel*Frame)             : 0.175
Stream size                    : 239 MiB (96%)
Color range                    : Limited
Color primaries                : BT.709
Transfer characteristics       : BT.709
Matrix coefficients            : BT.709
Codec configuration box        : avcC

Audio
ID                             : 2
Format                         : AAC LC
Format/Info                    : Advanced Audio Codec Low Complexity
Codec ID                       : mp4a-40-2
Duration                       : 5 min 7 s
Bit rate mode                  : Constant
Bit rate                       : 256 kb/s
Channel(s)                     : 2 channels
Channel layout                 : L R
Sampling rate                  : 48.0 kHz
Frame rate                     : 46.875 FPS (1024 SPF)
Compression mode               : Lossy
Stream size                    : 9.37 MiB (4%)
Default                        : Yes
Alternate group                : 1

</pre>
</div>
<div class="bbCodeBlock bbCodeVfcHH HiddenContent">
<div class="attribution type">Hidden Content:</div>
<blockquote>You must either reply or click 'Like' to see the hidden information contained here.</blockquote>
</div>
<div class="messageTextEndMarker">&nbsp;</div>
</blockquote>
</article>]]></description>
                <author><![CDATA[vitalya3]]></author>
                </item>

                
                <item>
                <title><![CDATA[【Apple Music】WEB-RiP - LSD - Thunderclouds ft. Sia, Diplo, Labrinth (1080p)]]></title>
                <link><![CDATA[https://sharemania.us/threads/lsd-thunderclouds-ft-sia-diplo-labrinth-1080p.238199/]]></link>
                <description><![CDATA[<article>
<blockquote class="messageText SelectQuoteContainer ugc baseHtml">
<img src="https://i.postimg.cc/13WyDHMz/LSD-Thunderclouds-ft-Sia-Diplo-Labrinth-mp4.jpg" class="bbCodeImage LbImage" alt="[​IMG]" data-url="https://i.postimg.cc/13WyDHMz/LSD-Thunderclouds-ft-Sia-Diplo-Labrinth-mp4.jpg" style=""><br>
<br>
<div class="bbCodeBlock bbCodeCode">
<div class="type">Code:</div>
<pre>General
Complete name                  : G:\Новая папка\LSD - Thunderclouds ft. Sia, Diplo, Labrinth.mp4
Format                         : MPEG-4
Format profile                 : Base Media
Codec ID                       : isom (isom/iso2/avc1/mp41)
File size                      : 238 MiB
Duration                       : 3 min 16 s
Overall bit rate               : 10.2 Mb/s
Frame rate                     : 23.976 FPS
Movie name                     : Thunderclouds (feat. Sia, Diplo &amp; Labrinth)
Performer                      : LSD
Genre                          : Pop
ContentType                    : Music Video
Recorded date                  : 2018-08-31 07:00:00 UTC
Writing application            : Lavf56.30.100
Copyright                      : ℗ (C) 2018 RECORDS, LLC / Columbia

Video
ID                             : 1
Format                         : AVC
Format/Info                    : Advanced Video Codec
Format profile                 : High@L4
Format settings                : CABAC / 5 Ref Frames
Format settings, CABAC         : Yes
Format settings, Reference fra : 5 frames
Codec ID                       : avc1
Codec ID/Info                  : Advanced Video Coding
Duration                       : 3 min 15 s
Bit rate                       : 9 912 kb/s
Width                          : 1 920 pixels
Height                         : 720 pixels
Display aspect ratio           : 2.667
Frame rate mode                : Constant
Frame rate                     : 23.976 (24000/1001) FPS
Color space                    : YUV
Chroma subsampling             : 4:2:0
Bit depth                      : 8 bits
Scan type                      : Progressive
Bits/(Pixel*Frame)             : 0.299
Stream size                    : 232 MiB (97%)
Color range                    : Limited
Color primaries                : BT.709
Transfer characteristics       : BT.709
Matrix coefficients            : BT.709
Codec configuration box        : avcC

Audio
ID                             : 2
Format                         : AAC LC
Format/Info                    : Advanced Audio Codec Low Complexity
Codec ID                       : mp4a-40-2
Duration                       : 3 min 16 s
Bit rate mode                  : Constant
Bit rate                       : 258 kb/s
Channel(s)                     : 2 channels
Channel layout                 : L R
Sampling rate                  : 48.0 kHz
Frame rate                     : 46.875 FPS (1024 SPF)
Compression mode               : Lossy
Stream size                    : 6.03 MiB (3%)
Default                        : Yes
Alternate group                : 1

</pre>
</div>
<div class="bbCodeBlock bbCodeVfcHH HiddenContent">
<div class="attribution type">Hidden Content:</div>
<blockquote>You must either reply or click 'Like' to see the hidden information contained here.</blockquote>
</div>
<div class="messageTextEndMarker">&nbsp;</div>
</blockquote>
</article>]]></description>
                <author><![CDATA[vitalya3]]></author>
                </item>

                </channel></rss>